<svg width="36" height="36" viewBox="0 0 36 36" fill="none" xmlns="http://www.w3.org/2000/svg">
<path d="M4 9.60008C4 6.50728 6.50721 4.00008 9.6 4.00008H26.4C29.4928 4.00008 32 6.50728 32 9.60008V26.4001C32 29.4929 29.4928 32.0001 26.4 32.0001H9.6C6.50721 32.0001 4 29.4929 4 26.4001V9.60008Z" fill="url(#paint0_linear_1_1114)"/>
<path d="M18 18H4V9.6C4 6.50721 6.50721 4 9.6 4H18V18Z" fill="url(#paint1_linear_1_1114)"/>
<path d="M18 18H4V26.4C4 29.4928 6.50721 32 9.6 32H18V18Z" fill="url(#paint2_linear_1_1114)"/>
<path d="M18 32.0001V23.6001H32V26.4001C32 29.4929 29.4928 32.0001 26.4 32.0001H18Z" fill="url(#paint3_linear_1_1114)"/>
<path d="M18 4V23.6H32V9.6C32 6.50721 29.4928 4 26.4 4H18Z" fill="url(#paint4_linear_1_1114)"/>
<defs>
<linearGradient id="paint0_linear_1_1114" x1="18.5094" y1="4.33714" x2="18.5094" y2="31.9975" gradientUnits="userSpaceOnUse">
<stop stop-color="#5BBAFF"/>
<stop offset="1" stop-color="#ACE1FF"/>
</linearGradient>
<linearGradient id="paint1_linear_1_1114" x1="18" y1="21.2812" x2="4.03294" y2="5.89458" gradientUnits="userSpaceOnUse">
<stop stop-color="#3662FD"/>
<stop offset="1" stop-color="#8673FF"/>
</linearGradient>
<linearGradient id="paint2_linear_1_1114" x1="18" y1="35.2812" x2="4.03294" y2="19.8946" gradientUnits="userSpaceOnUse">
<stop stop-color="#D5E0FF"/>
<stop offset="1" stop-color="#F0E1FF"/>
</linearGradient>
<linearGradient id="paint3_linear_1_1114" x1="32" y1="33.9688" x2="24.9269" y2="20.9821" gradientUnits="userSpaceOnUse">
<stop stop-color="#3662FD"/>
<stop offset="1" stop-color="#8673FF"/>
</linearGradient>
<linearGradient id="paint4_linear_1_1114" x1="32" y1="28.1938" x2="12.9055" y2="13.1686" gradientUnits="userSpaceOnUse">
<stop stop-color="#819CFF"/>
<stop offset="1" stop-color="#CFC8FF"/>
</linearGradient>
</defs>
</svg>
