<svg width="36" height="36" viewBox="0 0 36 36" fill="none" xmlns="http://www.w3.org/2000/svg">
<g clip-path="url(#clip0_1_1341)">
<path d="M5.25 31.125L31.125 31.125M11.25 25.125L31.125 25.125" stroke="url(#paint0_linear_1_1341)" stroke-width="3.75" stroke-linecap="round"/>
<g clip-path="url(#clip1_1_1341)">
<path fill-rule="evenodd" clip-rule="evenodd" d="M22.814 4.73505C25.1447 2.40436 28.9251 2.41463 31.251 4.74056C33.5769 7.06647 33.5871 10.8469 31.2565 13.1776L13.1788 31.2553C12.9674 31.4667 12.6974 31.6096 12.4037 31.6655L5.65522 32.951C4.10526 33.2462 2.74541 31.8863 3.04064 30.3364L4.32607 23.5878C4.382 23.2942 4.52493 23.0241 4.7363 22.8128L22.814 4.73505Z" fill="url(#paint1_linear_1_1341)"/>
<path fill-rule="evenodd" clip-rule="evenodd" d="M12.8685 31.4931C12.725 31.5757 12.5681 31.6342 12.4037 31.6655L5.65522 32.951C4.10526 33.2462 2.7454 31.8863 3.04063 30.3364L4.32606 23.5878C4.379 23.3099 4.50987 23.0531 4.70294 22.8472L12.8685 31.4931Z" fill="url(#paint2_linear_1_1341)"/>
<path d="M4.73631 22.8127C4.52494 23.0241 4.38201 23.2942 4.32608 23.5878L12.4037 31.6655C12.6974 31.6096 12.9674 31.4666 13.1788 31.2553L14.5044 29.9296L6.06199 21.4871L4.73631 22.8127Z" fill="url(#paint3_linear_1_1341)"/>
</g>
</g>
<defs>
<linearGradient id="paint0_linear_1_1341" x1="10.2621" y1="-5.11147e+06" x2="35.2043" y2="-5.11147e+06" gradientUnits="userSpaceOnUse">
<stop stop-color="#FFA553"/>
<stop offset="1" stop-color="#FF4869"/>
</linearGradient>
<linearGradient id="paint1_linear_1_1341" x1="4.53337" y1="40.1118" x2="-6.05604" y2="25.0103" gradientUnits="userSpaceOnUse">
<stop stop-color="#FFB21E"/>
<stop offset="1" stop-color="#FFE665"/>
</linearGradient>
<linearGradient id="paint2_linear_1_1341" x1="4.4803" y1="21.4207" x2="13.4601" y2="31.8375" gradientUnits="userSpaceOnUse">
<stop stop-color="#FFA553"/>
<stop offset="1" stop-color="#FF4869"/>
</linearGradient>
<linearGradient id="paint3_linear_1_1341" x1="9.41526" y1="20.4692" x2="9.41526" y2="31.6655" gradientUnits="userSpaceOnUse">
<stop stop-color="#FFFBDB"/>
<stop offset="1" stop-color="#FFDBA5"/>
</linearGradient>
<clipPath id="clip0_1_1341">
<rect width="36" height="36" fill="white"/>
</clipPath>
<clipPath id="clip1_1_1341">
<rect width="36" height="36" fill="white"/>
</clipPath>
</defs>
</svg>
